<svg width="842" height="596" viewBox="0 0 842 596" fill="none" xmlns="http://www.w3.org/2000/svg">
<g clip-path="url(#clip0)">
<path d="M52.1422 385.362H46.3486V423.986H52.1422V385.362Z" fill="white"/>
<path d="M101.261 423.986L80.1514 394.561V423.986H74.3508V385.362H80.271L101.44 414.905V385.362H107.181V423.986H101.261Z" fill="white"/>
<path d="M207.476 423.986L186.367 394.561V423.986H180.566V385.362H186.487L207.656 414.905V385.362H213.397V423.986H207.476Z" fill="white"/>
<path d="M250.298 423.986C245.293 423.986 241.241 422.382 238.203 419.23C235.164 416.078 233.674 411.78 233.674 406.451V402.841C233.674 399.345 234.389 396.25 235.819 393.614C237.249 390.978 239.275 388.915 241.837 387.483C244.399 386.05 247.438 385.362 250.834 385.362C255.303 385.362 258.997 386.509 261.738 388.686C264.479 390.921 266.088 394.016 266.505 397.97V398.084H260.665V398.027C260.189 395.104 259.116 392.927 257.567 391.609C255.958 390.291 253.694 389.603 250.834 389.603C247.319 389.603 244.518 390.749 242.493 393.041C240.467 395.334 239.454 398.657 239.454 402.898V406.508C239.454 410.52 240.407 413.729 242.314 416.135C244.221 418.485 246.902 419.688 250.298 419.688C253.396 419.688 255.78 419.058 257.388 417.855C258.997 416.651 260.129 414.474 260.665 411.436V411.379H266.445V411.494C265.909 415.448 264.24 418.542 261.44 420.72C258.64 422.897 254.886 423.986 250.298 423.986Z" fill="white"/>
<path d="M292.576 385.362H286.782V423.986H292.576V385.362Z" fill="white"/>
<path d="M468.523 423.986C463.518 423.986 459.466 422.379 456.428 419.223C453.389 416.066 451.899 411.762 451.899 406.425V402.809C451.899 399.308 452.614 396.209 454.044 393.569C455.474 390.929 457.5 388.863 460.062 387.486C462.624 386.051 465.663 385.362 469.059 385.362C473.587 385.362 477.222 386.51 479.963 388.691C482.704 390.929 484.312 394.028 484.729 397.988V398.103H478.95V398.046C478.473 395.119 477.401 392.938 475.852 391.618C474.243 390.298 471.979 389.609 469.119 389.609C465.603 389.609 462.803 390.757 460.777 393.053C458.751 395.348 457.738 398.677 457.738 402.924V406.54C457.738 410.557 458.692 413.771 460.598 416.181C462.505 418.592 465.127 419.739 468.582 419.739C471.681 419.739 474.064 419.108 475.673 417.903C477.282 416.698 478.414 414.517 478.95 411.475V411.418H484.729V411.533C484.193 415.492 482.525 418.592 479.724 420.772C476.924 422.896 473.17 423.986 468.523 423.986Z" fill="white"/>
<path d="M505.007 423.986V385.362H510.834V419.623H531.078V423.986H505.007Z" fill="white"/>
<path d="M562.519 423.986C559.222 423.986 556.278 423.239 553.687 421.802C551.155 420.365 549.154 418.239 547.74 415.595C546.327 412.893 545.621 409.732 545.562 406.226V403.525C545.562 399.904 546.269 396.685 547.682 393.926C549.095 391.167 551.097 389.041 553.628 387.547C556.219 386.052 559.163 385.362 562.46 385.362C565.816 385.362 568.819 386.11 571.351 387.547C573.882 388.983 575.884 391.11 577.297 393.869C578.651 396.628 579.358 399.846 579.358 403.525V405.881C579.358 409.56 578.651 412.778 577.297 415.537C575.943 418.296 573.941 420.423 571.409 421.86C568.878 423.239 565.875 423.986 562.519 423.986ZM562.46 389.731C558.986 389.731 556.278 390.938 554.276 393.237C552.274 395.593 551.273 398.869 551.214 403.065V405.824C551.214 410.077 552.215 413.468 554.217 415.882C556.219 418.296 558.986 419.561 562.519 419.561C566.051 419.561 568.819 418.411 570.762 416.112C572.705 413.813 573.706 410.479 573.764 406.169V403.41C573.764 399.042 572.764 395.593 570.821 393.237C568.819 390.938 565.993 389.731 562.46 389.731Z" fill="white"/>
<path d="M615.025 423.986C610.372 423.986 606.614 422.868 603.87 420.63C601.127 418.393 599.695 415.272 599.635 411.328V385.362H605.429V411.119C605.429 413.828 606.197 415.979 607.867 417.451C609.537 418.923 611.923 419.688 615.025 419.688C618.127 419.688 620.573 418.923 622.243 417.451C623.913 415.979 624.748 413.859 624.748 411.151V385.362H630.534V411.21C630.534 414.801 629.222 417.804 626.717 420.041C624.211 422.338 620.811 423.633 616.516 423.869L615.025 423.986Z" fill="white"/>
<path d="M650.812 423.986V385.362H662.861C666.56 385.362 669.841 386.129 672.704 387.603C675.567 389.077 677.774 391.2 679.325 393.972C680.876 396.684 681.651 399.868 681.711 403.407V405.883C681.711 409.48 680.936 412.723 679.385 415.436C677.834 418.148 675.627 420.271 672.763 421.746C669.9 423.22 666.5 423.986 662.742 423.986H650.812ZM656.598 419.623H662.384C666.679 419.623 670.02 418.384 672.406 416.026C674.792 413.608 675.985 410.188 675.985 405.706V403.466C675.985 399.161 674.851 395.741 672.644 393.382C670.377 390.964 667.216 389.785 663.1 389.726H656.658L656.598 419.623Z" fill="white"/>
<path d="M0 423.986V385.362H27.0367V391.141H5.90667V401.991L21.13 401.755V407.593L5.90667 407.77V423.986H0Z" fill="white"/>
<path d="M157.328 423.986L153.562 414.728H135.211L131.505 423.986H125.528L141.846 385.362H146.867L163.186 423.986H157.328ZM137.602 408.891H151.231L144.416 391.908L137.602 408.891Z" fill="white"/>
<path d="M343.628 423.986L339.922 414.728H321.571L317.865 423.986H311.888L328.206 385.362H333.227L349.546 423.986H343.628ZM323.902 408.891H337.531L330.717 391.908L323.902 408.891Z" fill="white"/>
<path d="M366.927 423.986V385.362H372.754V418.148H392.998V423.986H366.927Z" fill="white"/>
<path d="M642.605 171L593.901 247.174L545.019 171H505.973V345.773H545.019V243.258L573.216 287.515H614.289L642.605 243.14V345.773H681.711V171H642.605Z" fill="white"/>
<path d="M111.922 209.799L136.149 171H0V209.68V248.42V287.1V345.773H39.1786V287.515H111.922L111.802 248.657H39.1786V209.799H111.922Z" fill="white"/>
<path d="M225.467 171C177.209 171 138.08 210.128 138.08 258.386C138.08 306.645 177.209 345.773 225.467 345.773C273.725 345.773 312.853 306.645 312.853 258.386C312.853 210.128 273.725 171 225.467 171ZM225.467 305.34C198.67 305.34 176.912 283.583 176.912 256.786C176.912 229.989 198.67 208.231 225.467 208.231C252.264 208.231 274.021 229.989 274.021 256.786C274.021 283.583 252.264 305.34 225.467 305.34Z" fill="white"/>
<path d="M472.728 264.972C477.879 257.615 480.814 248.716 481.413 238.156C481.773 234.241 481.893 229.97 481.533 225.52C480.155 208.256 477.22 197.815 466.438 186.128C455.237 173.966 442.598 171.415 427.742 171H375.389H336.993V345.773H376.228V287.515H407.376L437.267 345.773H481.833L445.293 282.829C456.914 279.388 466.678 273.692 472.728 264.972ZM422.531 250.318C422.471 250.378 376.228 250.318 376.228 250.318V208.078H420.854C421.093 208.078 423.909 208.197 424.148 208.256C434.571 209.502 442.718 218.342 442.718 229.198C442.658 240.589 433.732 249.784 422.531 250.318Z" fill="white"/>
<path d="M743.509 278.072H705.851C705.851 315.462 736.329 345.773 773.926 345.773C811.522 345.773 842 315.462 842 278.072C842 253.99 829.357 232.845 810.311 220.843L790.183 252.502C798.693 257.864 804.342 267.312 804.342 278.072C804.342 294.779 790.724 308.322 773.926 308.322C757.127 308.322 743.509 294.779 743.509 278.072Z" fill="#00B4B4"/>
<path d="M817.377 209.738H705.851V171H842L817.377 209.738Z" fill="#00B4B4"/>
</g>
<defs>
<clipPath id="clip0">
<rect width="841.89" height="595.28" fill="white"/>
</clipPath>
</defs>
</svg>
